<svg width="346" height="65" viewBox="0 0 346 65" fill="none" xmlns="http://www.w3.org/2000/svg">
<path d="M0 0L0 50L50 50L50 0L0 0ZM7 19.6318C23.75 18.3755 31.625 26.2501 30.3691 43L7 43L7 19.6318Z" fill="#1141FF"/>
<path d="M293.807 50.0692V0H302.891V29.827L318.198 13.3756H328.569L315.122 27.9672L329.356 50.0692H318.77L308.756 34.7624L302.891 40.9853V50.0692H293.807Z" fill="#F9F9F9"/>
<path d="M267.473 50.0693V13.3757H275.412L276.271 18.8833C278.202 15.7361 281.063 13.3757 287 13.3757H288.931V21.6729H285.14C278.774 21.6729 276.557 26.2507 276.557 31.9014V50.0693H267.473Z" fill="#F9F9F9"/>
<path d="M237.994 50.4985C229.983 50.4985 224.332 46.636 224.332 39.7693C224.332 32.0444 229.983 27.7527 240.64 27.7527H248.794V25.75C248.794 21.959 246.219 19.8132 241.499 19.8132C237.279 19.8132 234.56 21.6729 234.06 24.6055H225.262C225.977 17.5243 232.415 12.9465 241.928 12.9465C251.942 12.9465 257.807 17.5958 257.807 26.3222V39.9839C257.807 41.9152 258.522 42.3443 260.096 42.3443H261.455V50.0693H256.734C251.87 50.0693 250.01 47.7804 250.01 44.4902V44.2756C247.578 47.995 243.788 50.4985 237.994 50.4985ZM239.496 43.7749C245.29 43.7749 248.794 40.27 248.794 34.977V33.9756H240.426C235.919 33.9756 233.488 35.6923 233.488 39.0541C233.488 41.9867 235.776 43.7749 239.496 43.7749Z" fill="#F9F9F9"/>
<path d="M183.125 64.3748V13.3757H191.065L191.923 18.6687C194.355 15.45 198.075 12.9465 203.582 12.9465C213.525 12.9465 220.749 20.0993 220.749 31.7583C220.749 43.1311 213.525 50.4985 203.654 50.4985C198.218 50.4985 194.498 48.2811 192.209 45.1339V64.3748H183.125ZM201.794 42.9881C207.659 42.9881 211.522 38.4818 211.522 31.7583C211.522 24.9632 207.659 20.4569 201.794 20.4569C195.929 20.4569 192.066 24.9632 192.066 31.6867C192.066 38.4818 195.929 42.9881 201.794 42.9881Z" fill="#F9F9F9"/>
<path d="M166.362 50.0692V0H175.446V50.0692H166.362Z" fill="#F9F9F9"/>
<path d="M149.347 50.0692V0H158.431V50.0692H149.347Z" fill="#F9F9F9"/>
<path d="M120.619 50.4985C112.608 50.4985 106.957 46.636 106.957 39.7693C106.957 32.0444 112.608 27.7527 123.265 27.7527H131.419V25.75C131.419 21.959 128.844 19.8132 124.124 19.8132C119.904 19.8132 117.185 21.6729 116.685 24.6055H107.887C108.602 17.5243 115.04 12.9465 124.553 12.9465C134.567 12.9465 140.432 17.5958 140.432 26.3222V39.9839C140.432 41.9152 141.147 42.3443 142.721 42.3443H144.08V50.0693H139.359C134.495 50.0693 132.635 47.7804 132.635 44.4902V44.2756C130.203 47.995 126.413 50.4985 120.619 50.4985ZM122.121 43.7749C127.915 43.7749 131.419 40.27 131.419 34.977V33.9756H123.051C118.544 33.9756 116.113 35.6923 116.113 39.0541C116.113 41.9867 118.401 43.7749 122.121 43.7749Z" fill="#F9F9F9"/>
<path d="M85.4569 50.4984C79.9492 50.4984 76.1583 48.138 73.8694 44.8477L72.9396 50.0692H65V0H74.084V18.3826C76.4444 15.3069 80.0923 12.9465 85.5284 12.9465C95.3992 12.9465 102.623 19.9562 102.623 31.6867C102.623 42.988 95.3992 50.4984 85.4569 50.4984ZM83.6687 42.988C89.5339 42.988 93.3964 38.4818 93.3964 31.7582C93.3964 24.9631 89.5339 20.4569 83.6687 20.4569C77.8034 20.4569 73.9409 24.9631 73.9409 31.6867C73.9409 38.4818 77.8034 42.988 83.6687 42.988Z" fill="#F9F9F9"/>
<path d="M336.227 50.1147V45.6385H334.602V44.875H338.719V45.6385H337.093V50.1147H336.227Z" fill="#F9F9F9"/>
<path d="M339.467 50.1147V44.875H340.599L342.3 48.9994L343.972 44.875H345.081V50.1147H344.238V46.2598L342.642 50.1147H341.905L340.31 46.2598V50.1147H339.467Z" fill="#F9F9F9"/>
</svg>
